<svg width="132" height="33" viewBox="0 0 132 33" fill="none" xmlns="http://www.w3.org/2000/svg">
<path d="M1.38492 11.9082C-1.25773 16.4944 0.421794 23.4549 3.34473 27.6754C4.80349 29.7845 6.28065 31.6794 8.30322 31.6794H8.41901C9.36915 31.6415 10.0563 31.3493 10.7208 31.0669C11.4664 30.7487 12.2358 30.4176 13.4468 30.4176C14.5971 30.4176 15.3319 30.7357 16.044 31.0431C16.756 31.3504 17.4648 31.6599 18.5329 31.6393C20.812 31.5971 22.2123 29.5529 23.446 27.75C24.3698 26.3905 25.0946 24.9059 25.5984 23.3413L25.6071 23.3142C25.627 23.2542 25.6241 23.1888 25.599 23.1308C25.5738 23.0727 25.5282 23.0259 25.4707 22.9993L25.4523 22.9917C25.0508 22.8273 21.5305 21.2603 21.4938 17.0095C21.4591 13.552 24.1342 11.721 24.671 11.3888L24.6959 11.3725C24.7239 11.3538 24.7479 11.3298 24.7664 11.3017C24.785 11.2737 24.7978 11.2422 24.8041 11.2091C24.8111 11.1755 24.8113 11.1409 24.8046 11.1072C24.7979 11.0736 24.7845 11.0416 24.7651 11.0132C22.919 8.30782 20.0891 7.90417 18.9485 7.85548C18.7802 7.83839 18.6112 7.83008 18.442 7.83059C17.1034 7.83059 15.8221 8.33596 14.7919 8.74177C14.0809 9.02205 13.4662 9.26446 13.0431 9.26446C12.567 9.26446 11.9501 9.01881 11.2348 8.73528C10.2782 8.35652 9.19384 7.92582 8.04674 7.92582H7.96666C5.29587 7.96478 2.77443 9.49172 1.38492 11.9082Z" fill="black"/>
<path d="M18.9495 0.416632C17.3338 0.482644 15.3957 1.47716 14.2378 2.83419C13.2519 3.97372 12.2899 5.87616 12.5442 7.79268C12.5519 7.85081 12.5793 7.90453 12.6218 7.9449C12.6644 7.98527 12.7195 8.00984 12.7779 8.01453C12.8861 8.02318 12.9943 8.02751 13.1091 8.02751C14.689 8.02751 16.3934 7.15312 17.5578 5.74631C18.7829 4.26049 19.4008 2.35263 19.2146 0.646052C19.2073 0.581503 19.176 0.522067 19.1269 0.479561C19.0778 0.437054 19.0144 0.414589 18.9495 0.416632Z" fill="black"/>
<path d="M37.5389 1.40367H40.6036C41.3471 1.38927 42.0824 1.56036 42.7431 1.90147C43.3471 2.21558 43.8513 2.69238 44.1986 3.27798C44.5392 3.88832 44.718 4.57564 44.718 5.27458C44.718 5.97353 44.5392 6.66085 44.1986 7.27118C43.8516 7.85733 43.3474 8.33456 42.7431 8.64878C42.0822 8.98938 41.347 9.16043 40.6036 9.14658H37.5389V1.40367ZM40.5593 8.63688C41.215 8.65013 41.8642 8.50381 42.4509 8.2105C42.9775 7.9441 43.4155 7.53058 43.7116 7.02012C44.0021 6.48339 44.1542 5.88272 44.1542 5.27242C44.1542 4.66212 44.0021 4.06145 43.7116 3.52472C43.4156 3.01418 42.9776 2.60063 42.4509 2.33434C41.8644 2.04054 41.2151 1.89418 40.5593 1.90796H38.1038V8.63255L40.5593 8.63688Z" fill="black"/>
<path d="M47.2784 8.81326C46.8439 8.56671 46.4859 8.20495 46.2439 7.76789C45.9973 7.30289 45.8684 6.78458 45.8684 6.25826C45.8684 5.73195 45.9973 5.21364 46.2439 4.74864C46.4859 4.31157 46.8439 3.94982 47.2784 3.70327C47.7313 3.45615 48.2391 3.32666 48.755 3.32666C49.271 3.32666 49.7787 3.45615 50.2316 3.70327C50.6659 3.95013 51.0239 4.31181 51.2662 4.74864C51.5127 5.21364 51.6416 5.73195 51.6416 6.25826C51.6416 6.78458 51.5127 7.30289 51.2662 7.76789C51.0239 8.20472 50.6659 8.56639 50.2316 8.81326C49.7787 9.06038 49.271 9.18987 48.755 9.18987C48.2391 9.18987 47.7313 9.06038 47.2784 8.81326ZM49.9438 8.38039C50.2947 8.1735 50.5819 7.87397 50.7738 7.51466C50.9737 7.12448 51.078 6.69235 51.078 6.25394C51.078 5.81552 50.9737 5.38339 50.7738 4.99321C50.5819 4.6339 50.2947 4.33437 49.9438 4.12748C49.5803 3.92328 49.1703 3.81602 48.7534 3.81602C48.3365 3.81602 47.9265 3.92328 47.563 4.12748C47.2119 4.33406 46.9246 4.63367 46.733 4.99321C46.5331 5.38339 46.4288 5.81552 46.4288 6.25394C46.4288 6.69235 46.5331 7.12448 46.733 7.51466C46.9246 7.8742 47.2119 8.17381 47.563 8.38039C47.9265 8.58459 48.3365 8.69185 48.7534 8.69185C49.1703 8.69185 49.5803 8.58459 49.9438 8.38039Z" fill="black"/>
<path d="M61.4419 3.37061L59.2516 9.14505H58.7322L56.7843 4.13462L54.8266 9.14505H54.318L52.1277 3.37061H52.658L54.5831 8.52497L56.5516 3.37061H57.0277L58.9854 8.51415L60.9333 3.37061H61.4419Z" fill="black"/>
<path d="M67.2595 3.95747C67.6809 4.37735 67.8912 4.98192 67.8905 5.77118V9.14538H67.3407V5.81555C67.3407 5.16625 67.1766 4.67206 66.8483 4.33298C66.5201 3.9939 66.0609 3.82436 65.4707 3.82436C64.7918 3.82436 64.2573 4.02745 63.867 4.43362C63.4767 4.8398 63.2815 5.38521 63.2815 6.06986V9.14538H62.7285V3.37094H63.2588V4.62084C63.453 4.22122 63.7634 3.88964 64.1494 3.66961C64.5769 3.4326 65.06 3.31416 65.5486 3.32657C66.2694 3.32657 66.8397 3.53687 67.2595 3.95747Z" fill="black"/>
<path d="M70.1685 0.938477H70.7214V9.14563H70.1685V0.938477Z" fill="black"/>
<path d="M73.8338 8.81326C73.3994 8.56686 73.0417 8.20505 72.8003 7.76789C72.553 7.30312 72.4237 6.78472 72.4237 6.25826C72.4237 5.73181 72.553 5.21341 72.8003 4.74864C73.0417 4.31148 73.3994 3.94966 73.8338 3.70327C74.2867 3.45615 74.7944 3.32666 75.3104 3.32666C75.8264 3.32666 76.3341 3.45615 76.787 3.70327C77.2215 3.94982 77.5795 4.31157 77.8216 4.74864C78.0681 5.21364 78.197 5.73195 78.197 6.25826C78.197 6.78458 78.0681 7.30289 77.8216 7.76789C77.5795 8.20495 77.2215 8.56671 76.787 8.81326C76.3341 9.06038 75.8264 9.18987 75.3104 9.18987C74.7944 9.18987 74.2867 9.06038 73.8338 8.81326ZM76.5002 8.38039C76.8509 8.17347 77.1377 7.87393 77.3292 7.51466C77.5291 7.12448 77.6333 6.69235 77.6333 6.25394C77.6333 5.81552 77.5291 5.38339 77.3292 4.99321C77.1377 4.63394 76.8509 4.3344 76.5002 4.12748C76.1367 3.92348 75.7268 3.81634 75.3099 3.81634C74.893 3.81634 74.483 3.92348 74.1195 4.12748C73.7686 4.33437 73.4814 4.6339 73.2894 4.99321C73.0895 5.38339 72.9853 5.81552 72.9853 6.25394C72.9853 6.69235 73.0895 7.12448 73.2894 7.51466C73.4814 7.87397 73.7686 8.1735 74.1195 8.38039C74.483 8.58439 74.893 8.69153 75.3099 8.69153C75.7268 8.69153 76.1367 8.58439 76.5002 8.38039Z" fill="black"/>
<path d="M83.4856 3.87426C83.8687 4.24003 84.0606 4.77679 84.0613 5.48452V9.14549H83.53V8.11311C83.3464 8.45191 83.0651 8.72758 82.7227 8.90417C82.329 9.10482 81.8918 9.20483 81.45 9.19527C80.8094 9.19527 80.3044 9.04377 79.935 8.74076C79.764 8.59667 79.6257 8.41769 79.5295 8.2158C79.4333 8.01391 79.3813 7.79379 79.3771 7.57019C79.3729 7.34658 79.4166 7.12466 79.5051 6.9193C79.5937 6.71394 79.7251 6.52989 79.8906 6.37948C80.234 6.0808 80.7816 5.93146 81.5334 5.93146H83.5137V5.4618C83.5137 4.92432 83.3694 4.51526 83.0809 4.23462C82.7923 3.95398 82.3663 3.81366 81.8028 3.81366C81.4269 3.81218 81.0538 3.87967 80.7023 4.01278C80.3748 4.13194 80.0729 4.31226 79.8127 4.54412L79.5357 4.14588C79.8392 3.87835 80.1926 3.6735 80.5756 3.54312C80.9839 3.39843 81.4141 3.32521 81.8472 3.32668C82.5564 3.32668 83.1025 3.50921 83.4856 3.87426ZM82.7497 8.40421C83.0954 8.16935 83.36 7.83331 83.5072 7.44216V6.36H81.5388C80.971 6.36 80.5601 6.46316 80.3062 6.6695C80.1804 6.77176 80.0804 6.90206 80.014 7.04996C79.9477 7.19785 79.9169 7.35923 79.9242 7.52116C79.9174 7.69244 79.952 7.86282 80.0251 8.01786C80.0982 8.1729 80.2076 8.30803 80.3441 8.41179C80.6247 8.62822 81.0193 8.73643 81.5279 8.73643C81.9592 8.74943 82.3845 8.63377 82.7497 8.40421Z" fill="black"/>
<path d="M91.4828 0.938477V9.14563H90.9417V7.78859C90.729 8.22141 90.3947 8.58281 89.9797 8.82856C89.5527 9.07602 89.0663 9.20248 88.5729 9.19433C88.061 9.20133 87.5566 9.07131 87.112 8.81774C86.6818 8.57186 86.3279 8.21198 86.0893 7.77777C85.8462 7.30881 85.7192 6.78829 85.7192 6.26003C85.7192 5.73178 85.8462 5.21126 86.0893 4.74229C86.3255 4.30629 86.68 3.94581 87.112 3.70233C87.5579 3.45244 88.0618 3.32441 88.5729 3.33115C89.0589 3.3229 89.538 3.4479 89.9581 3.69259C90.3698 3.93603 90.7067 4.28792 90.932 4.70983V0.938477H91.4828ZM89.7957 8.38162C90.1466 8.17472 90.4338 7.8752 90.6257 7.51589C90.8256 7.1257 90.9299 6.69358 90.9299 6.25516C90.9299 5.81675 90.8256 5.38462 90.6257 4.99444C90.4338 4.63513 90.1466 4.3356 89.7957 4.12871C89.4321 3.92471 89.0222 3.81757 88.6053 3.81757C88.1884 3.81757 87.7785 3.92471 87.415 4.12871C87.0643 4.33563 86.7775 4.63517 86.586 4.99444C86.3861 5.38462 86.2819 5.81675 86.2819 6.25516C86.2819 6.69358 86.3861 7.1257 86.586 7.51589C86.7775 7.87516 87.0643 8.1747 87.415 8.38162C87.7785 8.58562 88.1884 8.69276 88.6053 8.69276C89.0222 8.69276 89.4321 8.58562 89.7957 8.38162Z" fill="black"/>
<path d="M97.439 8.81326C97.0042 8.56702 96.6461 8.20519 96.4044 7.76789C96.1571 7.30312 96.0278 6.78472 96.0278 6.25826C96.0278 5.73181 96.1571 5.21341 96.4044 4.74864C96.6461 4.31133 97.0042 3.9495 97.439 3.70327C97.8919 3.45615 98.3996 3.32666 98.9156 3.32666C99.4316 3.32666 99.9393 3.45615 100.392 3.70327C100.826 3.95016 101.184 4.31185 101.426 4.74864C101.673 5.21341 101.802 5.73181 101.802 6.25826C101.802 6.78472 101.673 7.30312 101.426 7.76789C101.184 8.20468 100.826 8.56637 100.392 8.81326C99.9393 9.06038 99.4316 9.18987 98.9156 9.18987C98.3996 9.18987 97.8919 9.06038 97.439 8.81326ZM100.104 8.38039C100.455 8.17347 100.742 7.87393 100.933 7.51466C101.133 7.12448 101.237 6.69235 101.237 6.25394C101.237 5.81552 101.133 5.38339 100.933 4.99321C100.742 4.63394 100.455 4.3344 100.104 4.12748C99.7408 3.92348 99.3309 3.81634 98.914 3.81634C98.4971 3.81634 98.0872 3.92348 97.7236 4.12748C97.373 4.3344 97.0862 4.63394 96.8946 4.99321C96.6947 5.38339 96.5905 5.81552 96.5905 6.25394C96.5905 6.69235 96.6947 7.12448 96.8946 7.51466C97.0862 7.87393 97.373 8.17347 97.7236 8.38039C98.0872 8.58439 98.4971 8.69153 98.914 8.69153C99.3309 8.69153 99.7408 8.58439 100.104 8.38039Z" fill="black"/>
<path d="M108.052 3.95744C108.472 4.37732 108.682 4.98189 108.682 5.77115V9.14534H108.129V5.81552C108.129 5.16622 107.965 4.67203 107.636 4.33295C107.308 3.99387 106.849 3.82433 106.26 3.82433C105.581 3.82433 105.046 4.02742 104.656 4.43359C104.266 4.83976 104.07 5.38517 104.07 6.06983V9.14534H103.517V3.3709H104.048V4.6208C104.242 4.22122 104.552 3.88961 104.937 3.66958C105.365 3.43281 105.848 3.31439 106.337 3.32653C107.06 3.32653 107.631 3.53683 108.052 3.95744Z" fill="black"/>
<path d="M116.667 8.77975C116.519 8.91967 116.341 9.02467 116.146 9.08708C115.934 9.15871 115.712 9.19527 115.489 9.1953C114.984 9.1953 114.596 9.05678 114.327 8.77975C114.058 8.50271 113.922 8.11746 113.917 7.62399V3.84723H112.856V3.37108H113.917V2.11035H114.47V3.37108H116.31V3.84723H114.47V7.56339C114.47 7.93999 114.561 8.22568 114.742 8.42047C114.923 8.61526 115.19 8.71301 115.544 8.71374C115.873 8.72431 116.194 8.6081 116.44 8.38909L116.667 8.77975Z" fill="black"/>
<path d="M122.74 3.95772C123.16 4.3776 123.37 4.98217 123.37 5.77144V9.14563H122.817V5.8158C122.817 5.1665 122.653 4.67231 122.325 4.33324C121.996 3.99416 121.538 3.82462 120.948 3.82462C120.27 3.82462 119.735 4.0277 119.344 4.43388C118.953 4.84005 118.758 5.38546 118.758 6.07011V9.14563H118.203V0.938477H118.756V4.57672C118.949 4.18524 119.258 3.86287 119.641 3.65363C120.066 3.4284 120.542 3.31658 121.023 3.32898C121.747 3.32754 122.32 3.53712 122.74 3.95772Z" fill="black"/>
<path d="M130.539 6.39115H125.573C125.581 6.81433 125.699 7.22818 125.916 7.59127C126.125 7.93637 126.425 8.2175 126.782 8.40398C127.134 8.57837 127.52 8.67589 127.913 8.69007C128.306 8.70425 128.697 8.63477 129.061 8.48623C129.375 8.35543 129.65 8.1482 129.863 7.88346L130.188 8.24923C129.933 8.5544 129.609 8.7935 129.242 8.94615C128.798 9.12701 128.321 9.20881 127.842 9.18581C127.363 9.16282 126.896 9.0356 126.472 8.81304C126.03 8.57064 125.665 8.21067 125.415 7.77308C125.156 7.31095 125.024 6.78802 125.033 6.25804C125.024 5.73087 125.147 5.20982 125.393 4.74301C125.62 4.31025 125.963 3.94857 126.383 3.69764C126.814 3.45258 127.301 3.32373 127.796 3.32373C128.292 3.32373 128.779 3.45258 129.209 3.69764C129.626 3.94493 129.967 4.30258 130.193 4.73111C130.438 5.1944 130.562 5.71226 130.553 6.2364L130.539 6.39115ZM126.702 4.08397C126.379 4.2646 126.109 4.52836 125.922 4.84798C125.723 5.1864 125.607 5.56736 125.584 5.95937H130.009C129.993 5.56861 129.879 5.18818 129.677 4.85339C129.482 4.53053 129.206 4.26452 128.876 4.082C128.546 3.89948 128.174 3.80686 127.797 3.81343C127.414 3.80746 127.036 3.90066 126.7 4.08397H126.702Z" fill="black"/>
<path d="M45.7288 26.2609H39.1124L37.8138 29.3235H35.275L41.2269 16.0918H43.6456L49.6224 29.3235H47.0512L45.7288 26.2609ZM44.9161 24.3336L42.4206 18.5494L39.9446 24.3336H44.9161Z" fill="black"/>
<path d="M59.309 19.7593C60.0761 20.1801 60.7086 20.8093 61.1335 21.5741C61.5743 22.3554 61.7947 23.2572 61.7947 24.2795C61.8131 25.2259 61.5852 26.1607 61.1335 26.9925C60.7111 27.7614 60.0782 28.394 59.309 28.816C58.5 29.253 57.5921 29.4744 56.6728 29.4588C55.3114 29.4588 54.234 29.0053 53.4404 28.0985V32.9942H51.078V19.2301H53.3267V20.5579C53.7103 20.0817 54.2075 19.7096 54.7725 19.4758C55.3757 19.2307 56.0218 19.1085 56.6728 19.1165C57.5921 19.1009 58.5 19.3223 59.309 19.7593ZM58.5515 26.564C59.112 25.9868 59.3923 25.2242 59.3923 24.2763C59.3923 23.3283 59.112 22.5661 58.5515 21.9897C57.9902 21.4125 57.2749 21.1239 56.4055 21.1239C55.8698 21.1162 55.3415 21.2502 54.8742 21.5124C54.4167 21.7715 54.0416 22.1545 53.7921 22.6173C53.5306 23.133 53.3944 23.703 53.3944 24.2811C53.3944 24.8593 53.5306 25.4293 53.7921 25.945C54.0416 26.4078 54.4167 26.7908 54.8742 27.0499C55.3436 27.3111 55.8738 27.4433 56.4109 27.433C57.2767 27.433 57.9909 27.1433 58.5536 26.564H58.5515Z" fill="black"/>
<path d="M72.2755 19.7593C73.0426 20.1801 73.6751 20.8093 74.1001 21.5741C74.5401 22.3554 74.7605 23.2572 74.7613 24.2795C74.7796 25.2259 74.5518 26.1607 74.1001 26.9925C73.6776 27.7614 73.0447 28.394 72.2755 28.816C71.4666 29.253 70.5587 29.4744 69.6394 29.4588C68.278 29.4588 67.2005 29.0053 66.4069 28.0985V32.9942H64.0446V19.2301H66.2933V20.5579C66.6769 20.0817 67.174 19.7096 67.7391 19.4758C68.3423 19.2307 68.9883 19.1085 69.6394 19.1165C70.5587 19.1009 71.4666 19.3223 72.2755 19.7593ZM71.518 26.564C72.0786 25.9868 72.3588 25.2242 72.3588 24.2763C72.3588 23.3283 72.0786 22.5661 71.518 21.9897C70.956 21.4125 70.2407 21.1239 69.3721 21.1239C68.8363 21.1162 68.3081 21.2502 67.8408 21.5124C67.3865 21.7718 67.0142 22.1535 66.7662 22.6141C66.5048 23.1297 66.3685 23.6997 66.3685 24.2779C66.3685 24.856 66.5048 25.4261 66.7662 25.9417C67.0136 26.4054 67.3868 26.7899 67.843 27.0509C68.3103 27.3128 68.8386 27.4465 69.3742 27.4384C70.2443 27.4348 70.9596 27.1433 71.5202 26.564H71.518Z" fill="black"/>
<path d="M83.5971 29.078C82.6455 28.7894 81.8927 28.4053 81.3386 27.9255L82.1892 26.0155C82.7899 26.4756 83.4643 26.8305 84.1836 27.0652C84.9462 27.3317 85.748 27.4688 86.5558 27.471C87.5384 27.471 88.2724 27.3137 88.758 26.9992C89.2435 26.6846 89.4859 26.2691 89.4852 25.7525C89.4898 25.5763 89.4559 25.4013 89.3858 25.2396C89.3157 25.0779 89.2111 24.9335 89.0794 24.8164C88.7797 24.555 88.4288 24.3589 88.0491 24.2407C87.6336 24.1022 87.0665 23.9446 86.348 23.7678C85.5166 23.5806 84.6982 23.3399 83.898 23.0471C83.2779 22.8102 82.7259 22.424 82.2909 21.9227C81.8436 21.4119 81.62 20.7219 81.62 19.8525C81.614 19.1434 81.8214 18.4489 82.2152 17.8592C82.612 17.2604 83.2108 16.7846 84.0116 16.4318C84.8124 16.079 85.7928 15.9034 86.9529 15.9048C87.7561 15.9046 88.556 16.0061 89.3337 16.2067C90.0515 16.3801 90.7352 16.6728 91.3562 17.0725L90.5803 18.9814C90.0121 18.6467 89.4028 18.3873 88.7677 18.2098C88.1695 18.0376 87.5505 17.9484 86.928 17.9447C85.9584 17.9447 85.237 18.1084 84.7637 18.436C84.2904 18.7635 84.0541 19.1982 84.0549 19.74C84.0495 19.9149 84.0832 20.0889 84.1536 20.2491C84.224 20.4094 84.3293 20.5519 84.4618 20.6663C84.7632 20.9232 85.1137 21.1161 85.492 21.2334C85.9075 21.3726 86.4746 21.5303 87.1932 21.7063C88.0153 21.8858 88.8238 22.1227 89.6129 22.4151C90.2338 22.6548 90.788 23.0405 91.2285 23.5395C91.6751 24.0445 91.8988 24.7252 91.8995 25.5815C91.9068 26.2881 91.6992 26.9803 91.3043 27.5662C90.9075 28.1585 90.3058 28.6311 89.4992 28.9839C88.6927 29.3367 87.7097 29.513 86.5503 29.513C85.5498 29.5152 84.5545 29.3686 83.5971 29.078Z" fill="black"/>
<path d="M100.183 28.7757C99.885 29.0129 99.541 29.1863 99.1727 29.2854C98.7636 29.4005 98.3403 29.4577 97.9153 29.4553C96.8071 29.4553 95.9504 29.1667 95.3451 28.5895C94.7398 28.0124 94.4375 27.1679 94.4383 26.0562V21.1951H92.7717V19.3056H94.4361V16.9995H96.7985V19.3056H99.5039V21.1951H96.7985V25.9967C96.7985 26.488 96.9182 26.8627 97.1578 27.121C97.3973 27.3793 97.7436 27.5084 98.1966 27.5084C98.6724 27.5256 99.1396 27.3789 99.5201 27.0929L100.183 28.7757Z" fill="black"/>
<path d="M103.567 28.7942C102.768 28.3731 102.103 27.7356 101.649 26.9546C101.197 26.1372 100.96 25.2187 100.96 24.2849C100.96 23.351 101.197 22.4325 101.649 21.6151C102.105 20.8371 102.77 20.2019 103.567 19.7809C104.426 19.3462 105.374 19.1196 106.337 19.1196C107.299 19.1196 108.247 19.3462 109.106 19.7809C109.904 20.2019 110.568 20.8371 111.025 21.6151C111.476 22.4325 111.713 23.351 111.713 24.2849C111.713 25.2187 111.476 26.1372 111.025 26.9546C110.57 27.7356 109.905 28.3731 109.106 28.7942C108.247 29.229 107.299 29.4555 106.337 29.4555C105.374 29.4555 104.426 29.229 103.567 28.7942ZM108.481 26.5639C109.048 25.9867 109.332 25.2242 109.332 24.2762C109.332 23.3282 109.048 22.566 108.481 21.9896C107.914 21.4124 107.196 21.1238 106.327 21.1238C105.457 21.1238 104.743 21.4124 104.182 21.9896C103.62 22.5667 103.339 23.3289 103.34 24.2762C103.341 25.2235 103.621 25.986 104.182 26.5639C104.743 27.1411 105.457 27.4296 106.327 27.4296C107.196 27.4296 107.914 27.1411 108.481 26.5639Z" fill="black"/>
<path d="M119.826 19.1162V21.366C119.646 21.3301 119.462 21.3109 119.278 21.3087C118.358 21.3087 117.64 21.5767 117.124 22.1127C116.607 22.6488 116.349 23.4204 116.348 24.4275V29.3232H113.982V19.2298H116.232V20.7038C116.912 19.6454 118.11 19.1162 119.826 19.1162Z" fill="black"/>
<path d="M131.189 25.0325H123.268C123.384 25.7404 123.772 26.3749 124.35 26.7996C124.936 27.2325 125.664 27.4489 126.533 27.4489C127.643 27.4489 128.556 27.0835 129.274 26.3527L130.539 27.8082C130.078 28.3555 129.487 28.7779 128.82 29.0365C128.072 29.3233 127.276 29.4643 126.476 29.452C125.367 29.452 124.39 29.2316 123.545 28.7908C122.73 28.3783 122.051 27.7396 121.59 26.9511C121.122 26.1381 120.884 25.2137 120.899 24.276C120.886 23.3472 121.117 22.4313 121.57 21.6204C122.007 20.8452 122.652 20.2079 123.433 19.7807C124.255 19.3327 125.18 19.105 126.117 19.1195C127.037 19.103 127.945 19.3268 128.753 19.7688C129.52 20.1946 130.149 20.8306 130.567 21.602C131 22.3898 131.217 23.3003 131.217 24.3334C131.221 24.4968 131.208 24.7305 131.189 25.0325ZM124.204 21.6778C123.676 22.1344 123.336 22.7706 123.25 23.4633H128.977C128.899 22.7768 128.569 22.1438 128.05 21.6875C127.535 21.233 126.892 21.0061 126.123 21.0068C125.421 20.9858 124.736 21.2248 124.199 21.6778H124.204Z" fill="black"/>
</svg>
