<svg width="148" height="35" viewBox="0 0 148 35" fill="none" xmlns="http://www.w3.org/2000/svg">
<path d="M30.0767 15.8054L23.8694 12.2256L18.7648 17.1603L23.43 21.6707L30.0767 17.8334C30.2544 17.7307 30.402 17.583 30.5046 17.4052C30.6072 17.2274 30.6612 17.0258 30.6612 16.8205C30.6612 16.6152 30.6072 16.4135 30.5046 16.2357C30.402 16.0579 30.2544 15.9103 30.0767 15.8076V15.8054Z" fill="#FFD109"/>
<path d="M22.8165 11.6138L15.9848 7.67148L1.01514 0L17.9229 16.344L22.8165 11.6138Z" fill="#06EF79"/>
<path d="M1.26294 34.0754L16.0107 25.9516L22.376 22.2765L17.9229 17.9717L1.26294 34.0754Z" fill="#F93646"/>
<path d="M0.0162327 0.661133L0 33.6694L17.082 17.1577L0.0162327 0.661133Z" fill="#05D5FB"/>
<path d="M44.2682 21.5924H46.5407V26.7468C45.8461 27.2919 45.0576 27.7053 44.2141 27.9664C43.33 28.2485 42.4075 28.3916 41.4794 28.3906C40.2378 28.4095 39.0115 28.1139 37.9148 27.5313C36.8817 26.9836 36.0189 26.1627 35.4204 25.1581C34.8275 24.1167 34.5157 22.939 34.5157 21.7407C34.5157 20.5423 34.8275 19.3646 35.4204 18.3232C36.0211 17.3171 36.887 16.4956 37.9234 15.9489C39.0303 15.3665 40.2657 15.0714 41.5162 15.0907C42.5274 15.079 43.5313 15.2627 44.4727 15.6318C45.3319 15.9701 46.0979 16.5084 46.7074 17.202L45.1924 18.6792C44.7311 18.2016 44.1767 17.8236 43.5636 17.5686C42.9505 17.3136 42.2917 17.187 41.6277 17.1966C40.7827 17.1804 39.9471 17.3773 39.1982 17.7691C38.5037 18.1373 37.9274 18.6944 37.536 19.3761C37.1277 20.0963 36.9203 20.9129 36.9354 21.7407C36.9231 22.5564 37.1305 23.3605 37.536 24.0684C37.9304 24.752 38.5055 25.3136 39.1982 25.6916C39.9374 26.0936 40.7681 26.2971 41.6093 26.2825C42.6193 26.2825 43.506 26.061 44.2693 25.6181L44.2682 21.5924Z" fill="black"/>
<path d="M51.2136 27.6893C50.4321 27.2762 49.7823 26.6519 49.3382 25.8875C48.896 25.089 48.6641 24.1912 48.6641 23.2784C48.6641 22.3656 48.896 21.4678 49.3382 20.6693C49.7846 19.9092 50.434 19.2886 51.2136 18.8772C52.0523 18.4527 52.979 18.2314 53.919 18.2314C54.859 18.2314 55.7858 18.4527 56.6245 18.8772C57.404 19.2875 58.0538 19.907 58.5009 20.6661C58.9431 21.4646 59.1751 22.3624 59.1751 23.2752C59.1751 24.1879 58.9431 25.0857 58.5009 25.8843C58.0569 26.6487 57.4071 27.273 56.6255 27.6861C55.7869 28.1106 54.8601 28.3319 53.9201 28.3319C52.9801 28.3319 52.0533 28.1106 51.2147 27.6861L51.2136 27.6893ZM56.0206 25.5088C56.5747 24.9424 56.8517 24.1975 56.8517 23.2741C56.8517 22.3506 56.5747 21.6054 56.0206 21.0383C55.4665 20.472 54.7646 20.1888 53.9147 20.1888C53.0648 20.1888 52.3661 20.472 51.8185 21.0383C51.2695 21.6054 50.9954 22.3506 50.9961 23.2741C50.9968 24.1975 51.271 24.9424 51.8185 25.5088C52.3661 26.0758 53.0648 26.359 53.9147 26.3583C54.7646 26.3575 55.4665 26.0744 56.0206 25.5088Z" fill="black"/>
<path d="M63.1283 27.6893C62.3467 27.2762 61.6969 26.6519 61.2529 25.8875C60.8107 25.089 60.5787 24.1912 60.5787 23.2784C60.5787 22.3656 60.8107 21.4678 61.2529 20.6693C61.6992 19.9092 62.3487 19.2886 63.1283 18.8772C63.9669 18.4527 64.8937 18.2314 65.8337 18.2314C66.7737 18.2314 67.7005 18.4527 68.5391 18.8772C69.3179 19.2879 69.9669 19.9073 70.4134 20.6661C70.8556 21.4646 71.0876 22.3624 71.0876 23.2752C71.0876 24.1879 70.8556 25.0857 70.4134 25.8843C69.9694 26.6487 69.3196 27.273 68.538 27.6861C67.6994 28.1106 66.7726 28.3319 65.8326 28.3319C64.8926 28.3319 63.9658 28.1106 63.1272 27.6861L63.1283 27.6893ZM67.9309 25.5088C68.485 24.9424 68.762 24.1975 68.762 23.2741C68.762 22.3506 68.485 21.6054 67.9309 21.0383C67.3769 20.472 66.6749 20.1888 65.825 20.1888C64.9752 20.1888 64.2765 20.472 63.7289 21.0383C63.1799 21.6054 62.9057 22.3506 62.9064 23.2741C62.9072 24.1975 63.1813 24.9424 63.7289 25.5088C64.2765 26.0758 64.9752 26.359 65.825 26.3583C66.6749 26.3575 67.3769 26.0744 67.9309 25.5088Z" fill="black"/>
<path d="M83.0964 18.3415V26.7099C83.0964 30.1836 81.3217 31.9205 77.7722 31.9205C76.8609 31.9255 75.9534 31.8042 75.0754 31.5601C74.3101 31.3602 73.5946 31.0039 72.9738 30.5137L74.0084 28.7822C74.4946 29.1686 75.0494 29.4597 75.6435 29.6404C76.2901 29.8544 76.9667 29.964 77.6477 29.965C78.7299 29.965 79.5235 29.7187 80.0285 29.2259C80.5335 28.7332 80.786 27.9821 80.786 26.9728V26.4556C80.3877 26.8891 79.8943 27.2243 79.3446 27.4349C78.7489 27.6614 78.1161 27.7741 77.4789 27.7671C76.5958 27.777 75.7239 27.5681 74.9412 27.159C74.1985 26.7729 73.578 26.1876 73.1492 25.4686C72.7193 24.7095 72.4934 23.852 72.4934 22.9796C72.4934 22.1073 72.7193 21.2498 73.1492 20.4907C73.5799 19.7798 74.2005 19.2034 74.9412 18.8263C75.7271 18.4256 76.599 18.2228 77.4811 18.2354C78.1468 18.2268 78.808 18.3458 79.429 18.586C80.0022 18.8114 80.5079 19.1803 80.8975 19.6574V18.3415H83.0964ZM79.9841 25.0195C80.5447 24.4958 80.825 23.8154 80.825 22.9786C80.825 22.1532 80.5447 21.4819 79.9841 20.9646C79.4236 20.4474 78.7061 20.1887 77.8317 20.1887C76.9458 20.1887 76.2243 20.4474 75.6674 20.9646C75.1104 21.4819 74.8301 22.1532 74.8265 22.9786C74.8265 23.8162 75.1068 24.4965 75.6674 25.0195C76.2279 25.5426 76.9494 25.8041 77.8317 25.8041C78.7061 25.8041 79.4236 25.5426 79.9841 25.0195Z" fill="black"/>
<path d="M86.1265 14.498H88.4347V28.2059H86.1265V14.498Z" fill="black"/>
<path d="M100.701 24.0137H92.9603C93.0742 24.7077 93.4558 25.3294 94.023 25.7451C94.5959 26.1693 95.3068 26.3818 96.156 26.3825C97.2381 26.3825 98.1313 26.0251 98.8354 25.3101L100.072 26.7267C99.6219 27.2615 99.0439 27.6743 98.3917 27.9268C97.6612 28.2079 96.8834 28.346 96.1008 28.3337C95.0186 28.3337 94.0641 28.1172 93.2374 27.6844C92.4405 27.2798 91.7771 26.6542 91.3263 25.8826C90.8701 25.09 90.6364 24.1889 90.6499 23.2745C90.6358 22.3661 90.862 21.4702 91.3057 20.6773C91.7318 19.9189 92.362 19.295 93.1248 18.8766C93.9286 18.4377 94.8323 18.214 95.748 18.2273C96.6477 18.2119 97.5359 18.4316 98.3246 18.8647C99.074 19.2811 99.6893 19.9023 100.098 20.6557C100.523 21.4262 100.735 22.3161 100.736 23.3254C100.738 23.4899 100.725 23.7172 100.701 24.0137ZM93.8748 20.7347C93.3588 21.1813 93.0265 21.8031 92.9419 22.4802H98.5389C98.4629 21.8092 98.1405 21.1903 97.6342 20.7434C97.1292 20.3011 96.5012 20.0796 95.7502 20.0789C95.0657 20.0596 94.398 20.293 93.8748 20.7347Z" fill="black"/>
<path d="M116.522 15.8301C117.304 16.1576 117.97 16.7112 118.435 17.4198C118.877 18.1095 119.098 18.9283 119.099 19.8763C119.099 20.8142 118.878 21.6301 118.435 22.3241C117.972 23.0362 117.306 23.5927 116.522 23.9214C115.691 24.2915 114.715 24.4762 113.594 24.4755H110.672V28.2068H108.271V15.2749H113.592C114.714 15.2749 115.691 15.46 116.522 15.8301ZM115.867 21.782C116.408 21.3383 116.679 20.7041 116.679 19.8795C116.68 19.0549 116.408 18.4193 115.864 17.9727C115.323 17.5291 114.529 17.3072 113.484 17.3072H110.67V22.4432H113.484C114.53 22.4432 115.324 22.2213 115.864 21.7776L115.867 21.782Z" fill="black"/>
<path d="M121.464 14.498H123.773V28.2059H121.464V14.498Z" fill="black"/>
<path d="M133.904 19.2743C134.675 19.9698 135.06 21.0199 135.059 22.4245V28.2054H132.879V27.0053C132.583 27.4473 132.162 27.7912 131.67 27.9933C131.146 28.222 130.514 28.336 129.776 28.3353C129.11 28.3497 128.448 28.2205 127.836 27.9565C127.318 27.734 126.873 27.3689 126.553 26.9036C126.251 26.4535 126.093 25.9221 126.1 25.3799C126.1 24.4925 126.429 23.7812 127.089 23.2459C127.748 22.7106 128.786 22.4429 130.201 22.4429H132.746V22.2946C132.746 21.6049 132.54 21.0754 132.127 20.706C131.715 20.3366 131.101 20.152 130.288 20.152C129.733 20.1523 129.181 20.2396 128.654 20.4106C128.158 20.5605 127.697 20.8053 127.295 21.1313L126.39 19.4496C126.95 19.0344 127.583 18.7276 128.256 18.5449C129.007 18.332 129.784 18.2263 130.565 18.2311C132.019 18.2311 133.132 18.5788 133.904 19.2743ZM131.798 26.2575C132.24 26.0027 132.577 25.6003 132.751 25.1213V23.9753H130.37C129.039 23.9753 128.374 24.4125 128.374 25.2868C128.368 25.4814 128.411 25.6744 128.498 25.8486C128.585 26.0227 128.714 26.1725 128.873 26.2846C129.206 26.5313 129.668 26.6547 130.258 26.6547C130.798 26.664 131.33 26.5267 131.798 26.2575Z" fill="black"/>
<path d="M147.067 18.3418L142.448 28.999C142.015 30.0718 141.492 30.8264 140.878 31.2629C140.264 31.6993 139.519 31.9187 138.643 31.9208C138.147 31.9197 137.654 31.8386 137.183 31.6806C136.746 31.5451 136.344 31.3182 136.001 31.0151L136.924 29.3161C137.153 29.5295 137.42 29.6987 137.71 29.8149C138 29.9351 138.311 29.9976 138.625 29.9989C138.986 30.0129 139.341 29.9021 139.631 29.6851C139.896 29.4751 140.14 29.1241 140.36 28.6321L140.527 28.2447L136.223 18.3429H138.625L141.728 25.6443L144.849 18.3472L147.067 18.3418Z" fill="black"/>
<path d="M38.6474 8.0968C38.1418 8.09998 37.6426 7.98315 37.1908 7.75592C36.7421 7.52999 36.3418 7.21864 36.0124 6.83932C35.677 6.45599 35.4121 6.01635 35.23 5.54072C35.0448 5.06502 34.9501 4.5589 34.9508 4.04842C34.9449 3.01731 35.3185 2.02007 36.0005 1.24669C36.3274 0.877384 36.7267 0.579054 37.1735 0.37013C37.6329 0.153182 38.1351 0.0422316 38.6431 0.0454795C39.4107 0.0454795 40.0438 0.20564 40.5423 0.525962C41.0272 0.830758 41.418 1.26422 41.671 1.77803L40.9005 2.3137C40.6965 1.8818 40.3649 1.52294 39.9504 1.28564C39.5431 1.0618 39.0851 0.946641 38.6204 0.951254C38.2399 0.946068 37.8639 1.03412 37.5252 1.20773C37.198 1.37905 36.9104 1.61722 36.6811 1.90681C36.4445 2.20557 36.2631 2.54419 36.1455 2.90673C36.0217 3.28167 35.9592 3.67413 35.9604 4.06898C35.958 4.47843 36.028 4.88507 36.1671 5.27018C36.2989 5.63891 36.4994 5.9793 36.758 6.27335C37.004 6.55494 37.3039 6.78453 37.6399 6.94862C37.9768 7.11327 38.3472 7.19772 38.7221 7.19536C39.178 7.19554 39.6258 7.07573 40.0207 6.84798C40.4757 6.57608 40.8711 6.21498 41.183 5.78638V6.82634C40.4694 7.67404 39.6243 8.09753 38.6474 8.0968ZM41.0607 4.8503H39.3552V4.09278H41.9145V8.04811H41.065L41.0607 4.8503Z" fill="black"/>
<path d="M48.8263 7.14664V8.04051H43.4403V0.10498H48.7256V0.998851H44.4467V3.56792H48.1672V4.40551H44.4467V7.14339L48.8263 7.14664Z" fill="black"/>
<path d="M55.9221 1.00101H53.1853V8.04051H52.1789V1.00101H49.441V0.10498H55.9221V1.00101Z" fill="black"/>
<path d="M59.5538 8.04051V0.10498H60.5657V8.03835L59.5538 8.04051Z" fill="black"/>
<path d="M63.4648 1.96198V8.04051H62.4595V0.10498H63.309L68.1582 6.30688V0.117967H69.1635V8.04051H68.2491L63.4648 1.96198Z" fill="black"/>
<path d="M77.1087 8.09654C76.5846 8.10338 76.066 7.98855 75.5937 7.76107C75.143 7.54059 74.7417 7.23098 74.4141 6.85097C73.7497 6.07811 73.3832 5.09333 73.3806 4.07413C73.3785 3.55563 73.4751 3.04147 73.6653 2.55909C73.8504 2.08617 74.1195 1.65062 74.4596 1.27348C74.7939 0.900343 75.1984 0.596621 75.65 0.379608C76.1144 0.159495 76.623 0.0484502 77.1369 0.0549579C77.6622 0.048572 78.1815 0.167271 78.6519 0.401251C79.1018 0.627229 79.5017 0.941111 79.8282 1.32434C80.1539 1.71014 80.4102 2.14952 80.5857 2.62294C80.8559 3.33861 80.9243 4.11475 80.7834 4.86664C80.6426 5.61853 80.2979 6.3173 79.7871 6.88668C79.453 7.25875 79.0484 7.56075 78.5967 7.77514C78.1311 7.99257 77.6225 8.10242 77.1087 8.09654ZM74.3936 4.07413C74.3927 4.4716 74.4589 4.86636 74.5894 5.24178C74.7125 5.60545 74.8998 5.94412 75.1424 6.24171C75.3779 6.52995 75.6709 6.76584 76.0027 6.93429C76.3547 7.1056 76.7413 7.19371 77.1327 7.19184C77.5241 7.18996 77.9099 7.09814 78.2601 6.92347C78.5918 6.74715 78.883 6.50351 79.1151 6.20816C79.3531 5.90743 79.5362 5.56712 79.6561 5.20283C79.7781 4.83898 79.8405 4.45786 79.8412 4.07413C79.842 3.67843 79.7758 3.28546 79.6453 2.91188C79.5193 2.54839 79.3303 2.20992 79.0869 1.91196C78.8503 1.62246 78.5553 1.3861 78.2212 1.21829C77.8711 1.051 77.4877 0.965164 77.0998 0.967226C76.7118 0.969287 76.3294 1.05919 75.9811 1.23019C75.6488 1.4028 75.3574 1.64448 75.1262 1.93901C74.8906 2.23972 74.7076 2.57818 74.5851 2.94001C74.4585 3.30473 74.3937 3.68806 74.3936 4.07413Z" fill="black"/>
<path d="M83.2544 1.96198V8.04051H82.249V0.10498H83.0985L87.9445 6.30904V0.117967H88.9498V8.04051H88.0343L83.2544 1.96198Z" fill="black"/>
</svg>
