<svg width="116" height="19" viewBox="0 0 116 19" fill="none" xmlns="http://www.w3.org/2000/svg">
<path d="M20.2707 7.15784C20.2008 6.94823 20.0147 6.79547 19.7907 6.76382L13.4976 5.87364L10.6832 0.32269C10.583 0.125085 10.3763 0 10.1499 0C9.92352 0 9.71679 0.125085 9.6166 0.32269L6.80205 5.87364L0.509075 6.76382C0.285102 6.79547 0.0989537 6.94823 0.0290142 7.1578C-0.040965 7.3674 0.0173972 7.59747 0.179519 7.75127L4.73304 12.0721L3.65826 18.1732C3.61996 18.3905 3.7117 18.6099 3.89484 18.7395C3.99844 18.8127 4.12115 18.85 4.24446 18.85C4.33914 18.85 4.43413 18.828 4.52112 18.7835L10.1499 15.9029L15.7784 18.7835C15.9788 18.886 16.2216 18.8689 16.4047 18.7394C16.5878 18.6099 16.6796 18.3904 16.6414 18.1732L15.5662 12.0721L20.1203 7.75123C20.2823 7.59747 20.3407 7.3674 20.2707 7.15784Z" fill="#FFCA56"/>
<path d="M44.1958 7.15784C44.1258 6.94823 43.9398 6.79547 43.7157 6.76382L37.4227 5.87364L34.6082 0.32269C34.5081 0.125085 34.3013 0 34.075 0C33.8486 0 33.6418 0.125085 33.5416 0.32269L30.7271 5.87364L24.4341 6.76382C24.2102 6.79547 24.024 6.94823 23.9541 7.1578C23.8841 7.3674 23.9424 7.59747 24.1046 7.75127L28.6581 12.0721L27.5833 18.1732C27.545 18.3905 27.6368 18.6099 27.8199 18.7395C27.9235 18.8127 28.0462 18.85 28.1695 18.85C28.2642 18.85 28.3592 18.828 28.4462 18.7835L34.0749 15.9029L39.7034 18.7835C39.9038 18.886 40.1466 18.8689 40.3297 18.7394C40.5129 18.6099 40.6047 18.3904 40.5664 18.1732L39.4913 12.0721L44.0453 7.75123C44.2074 7.59747 44.2658 7.3674 44.1958 7.15784Z" fill="#FFCA56"/>
<path d="M68.1207 7.15784C68.0508 6.94823 67.8647 6.79547 67.6407 6.76382L61.3476 5.87364L58.5332 0.32269C58.433 0.125085 58.2262 0 57.9999 0C57.7735 0 57.5668 0.125085 57.4666 0.32269L54.652 5.87364L48.3591 6.76382C48.1351 6.79547 47.9489 6.94823 47.879 7.1578C47.809 7.3674 47.8674 7.59747 48.0295 7.75127L52.583 12.0721L51.5082 18.1732C51.4699 18.3905 51.5617 18.6099 51.7448 18.7395C51.8484 18.8127 51.9711 18.85 52.0944 18.85C52.1891 18.85 52.2841 18.828 52.3711 18.7835L57.9998 15.9029L63.6284 18.7835C63.8288 18.886 64.0715 18.8689 64.2547 18.7394C64.4378 18.6099 64.5296 18.3904 64.4913 18.1732L63.4162 12.0721L67.9702 7.75123C68.1323 7.59747 68.1907 7.3674 68.1207 7.15784Z" fill="#FFCA56"/>
<path d="M92.0457 7.15784C91.9758 6.94823 91.7897 6.79547 91.5657 6.76382L85.2726 5.87364L82.4582 0.32269C82.3581 0.125085 82.1513 0 81.9249 0C81.6985 0 81.4918 0.125085 81.3916 0.32269L78.5771 5.87364L72.2841 6.76382C72.0601 6.79547 71.874 6.94823 71.804 7.1578C71.7341 7.3674 71.7924 7.59747 71.9545 7.75127L76.5081 12.0721L75.4333 18.1732C75.395 18.3905 75.4867 18.6099 75.6699 18.7395C75.7735 18.8127 75.8962 18.85 76.0195 18.85C76.1142 18.85 76.2092 18.828 76.2961 18.7835L81.9249 15.9029L87.5534 18.7835C87.7538 18.886 87.9966 18.8689 88.1797 18.7394C88.3629 18.6099 88.4546 18.3904 88.4164 18.1732L87.3412 12.0721L91.8953 7.75123C92.0574 7.59747 92.1158 7.3674 92.0457 7.15784Z" fill="#FFCA56"/>
<path d="M115.971 7.15784C115.901 6.94823 115.715 6.79547 115.491 6.76382L109.198 5.87364L106.383 0.32269C106.283 0.125085 106.076 0 105.85 0C105.623 0 105.417 0.125085 105.317 0.32269L102.502 5.87364L96.209 6.76382C95.9851 6.79547 95.7989 6.94823 95.729 7.1578C95.659 7.3674 95.7173 7.59747 95.8795 7.75127L100.433 12.0721L99.3582 18.1732C99.3199 18.3905 99.4117 18.6099 99.5948 18.7395C99.6984 18.8127 99.8211 18.85 99.9444 18.85C100.039 18.85 100.134 18.828 100.221 18.7835L105.85 15.9029L111.478 18.7835C111.679 18.886 111.922 18.8689 112.105 18.7394C112.288 18.6099 112.38 18.3904 112.341 18.1732L111.266 12.0721L115.82 7.75123C115.982 7.59747 116.041 7.3674 115.971 7.15784Z" fill="#FFCA56"/>
</svg>
