<svg width="705" height="695" viewBox="0 0 705 695" fill="none" xmlns="http://www.w3.org/2000/svg">
<path d="M622.223 576.494C637.409 562.118 653.032 548.122 665.801 531.518C680.799 511.988 693.295 489.769 699.899 465.929C705.74 444.146 706.386 421.295 701.785 399.217C697.277 376.694 688.122 355.38 676.355 335.723C663.769 314.738 648.424 295.637 632.641 276.919C604.149 233.931 569.97 188.384 541.778 134.817C527.32 107.318 511.868 85.0533 495.226 67.5449C492.661 64.3931 489.979 61.368 487.321 58.4082C479.495 49.6484 471.135 41.3815 462.287 33.6549C449.277 22.3672 433.144 15.1612 416.729 10.0158C402.035 5.29657 386.834 2.33261 371.443 1.18578C355.791 0.0324981 340.054 1.20081 324.743 4.65279C309.372 8.33207 294.466 13.7372 280.309 20.7651C265.768 27.96 251.622 35.9245 237.929 44.6246C222.947 53.9529 208.119 63.5297 193.384 73.2356C181.993 80.7227 170.662 88.3071 159.33 95.8915C148.78 101.919 137.998 108.229 126.984 114.822C107.979 126.069 89.6973 138.494 72.2448 152.024C57.138 159.385 41.2864 165.869 28.4642 177.103C23.231 181.706 18.6851 187.035 14.9653 192.928C12.4887 196.828 10.3222 200.916 8.48605 205.155C6.15425 210.509 4.32315 216.068 3.01615 221.76C1.4618 228.58 0.635802 235.546 0.552065 242.54C0.467374 250.856 1.28887 259.157 3.00196 267.296C5.08697 277.101 8.18695 286.663 12.2517 295.827C17.2522 307.13 23.2697 317.955 30.2299 328.168C38.3619 340.139 47.3433 351.51 57.1047 362.195C90.0667 403.704 138.199 451.085 197.545 508.355C247.62 556.632 289.926 596.154 327.681 625.373C338.378 635.614 349.457 645.441 360.903 654.776C378.774 669.288 398.43 682.487 420.579 689.447C431.556 692.973 443.055 694.601 454.58 694.263C467.253 693.656 479.72 690.823 491.411 685.893C511.872 677.548 529.726 664.503 546.539 650.348C570.142 632.959 594.997 608.53 622.223 576.494ZM227.136 54.2805C240.621 45.7221 254.188 37.2601 268.255 29.6638C282.245 21.8992 296.946 15.4911 312.156 10.5272C326.953 5.87905 342.351 3.42599 357.859 3.24635C373.33 3.15821 388.748 5.05681 403.735 8.89557C419.673 12.9417 435.674 18.536 449.659 27.3803C459.198 33.4265 467.554 41.4039 475.46 49.4772C403.565 -7.50153 311.01 13.3874 185.853 81.1301C199.528 72.0656 213.289 63.1157 227.136 54.2805ZM19.1191 191.031C19.1933 190.95 19.2252 190.916 19.1191 191.031V191.031ZM17.9098 302.298C13.2702 293.006 9.57783 283.271 6.88859 273.24C4.67948 264.971 3.3788 256.485 3.00956 247.934C2.74118 240.829 3.23822 233.716 4.49216 226.717C5.5346 220.879 7.13328 215.154 9.26635 209.62C11.0248 205.091 13.1464 200.711 15.6105 196.524C16.6053 194.844 17.6452 193.184 18.7426 191.578C18.8805 191.428 19.0184 191.279 19.0988 191.076L19.3321 190.823L20.0453 189.841C20.5172 189.191 20.9794 188.574 21.5061 187.91C32.3596 174.031 48.4549 165.92 64.051 158.605L64.2737 158.363C0.162483 212.085 -6.46192 260.936 28.4833 321.195C24.6301 315.085 21.1008 308.778 17.9098 302.298ZM669.193 328.783C681.749 348.208 691.952 369.169 697.633 391.666C703.261 413.05 703.944 435.436 699.628 457.123C694.516 481.146 682.955 503.482 668.817 523.443C658.951 537.38 647.095 549.483 634.848 561.247C720.68 452.133 695.843 376.564 644.046 294.475C653.017 305.468 661.41 316.919 669.193 328.783ZM498.811 679.942C487.443 685.676 475.209 689.502 462.599 691.266C451.106 692.648 439.457 691.93 428.22 689.147C405.79 683.693 385.687 671.232 367.679 657.169C360.141 651.307 352.813 645.171 345.664 638.817C411.927 685.901 464.698 697.926 522.917 665.656C515.266 671.039 507.206 675.815 498.811 679.942Z" fill="#FFE9E9"/>
</svg>
