<svg width="702" height="678" viewBox="0 0 702 678" fill="none" xmlns="http://www.w3.org/2000/svg">
<path d="M605.968 102.223C593.64 85.3316 581.744 68.0562 566.899 53.2793C549.434 35.9196 528.984 20.6999 506.178 11.1185C485.314 2.55501 462.731 -0.991288 440.247 0.76496C417.334 2.3721 395.029 8.74226 374.035 17.9148C351.62 27.7302 330.723 40.5215 310.15 53.7965C263.888 76.5912 214.365 104.701 157.648 125.854C128.533 136.697 104.485 149.192 85.0022 163.473C81.5498 165.617 78.2081 167.893 74.9345 170.152C65.2507 176.8 55.9878 184.042 47.1989 191.836C34.3486 203.305 25.1496 218.391 17.9588 234.018C11.4094 247.992 6.53664 262.693 3.44212 277.813C0.307894 293.192 -0.534329 308.95 0.942799 324.575C2.63769 340.29 6.10352 355.762 11.2743 370.698C16.5619 386.035 22.663 401.079 29.5514 415.767C36.8989 431.814 44.5125 447.739 52.266 463.588C58.2439 475.839 64.3258 488.043 70.4078 500.247C75.045 511.478 79.9331 522.975 85.0721 534.738C93.8108 555.018 103.81 574.732 115.011 593.763C120.392 609.683 124.808 626.231 134.32 640.377C138.22 646.153 142.928 651.34 148.3 655.779C151.853 658.731 155.633 661.4 159.604 663.76C164.618 666.754 169.899 669.277 175.379 671.297C181.946 673.706 188.75 675.411 195.677 676.383C203.915 677.525 212.253 677.765 220.543 677.101C230.534 676.28 240.413 674.421 250.019 671.554C261.866 668.032 273.368 663.439 284.383 657.834C297.291 651.291 309.712 643.828 321.551 635.504C366.915 608.088 420.032 566.371 484.382 514.789C538.635 471.26 583.215 434.322 616.998 400.588C628.516 391.281 639.672 381.542 650.387 371.376C667.053 355.495 682.644 337.676 692.365 316.593C697.258 306.152 700.335 294.954 701.465 283.479C702.474 270.832 701.249 258.106 697.846 245.883C692.171 224.528 681.502 205.159 669.6 186.684C655.353 161.061 634.282 133.301 605.968 102.223ZM37.7564 427.7C30.9823 413.236 24.314 398.704 18.5681 383.785C12.6453 368.921 8.15856 353.525 5.1691 337.807C2.44009 322.539 1.96489 306.954 3.75868 291.549C5.63844 276.193 9.4821 261.141 15.1954 246.764C21.2353 231.47 28.8187 216.31 39.3695 203.563C46.5796 194.87 55.5548 187.596 64.5678 180.782C-1.09028 244.848 7.86032 339.307 59.1388 472.062C51.8867 457.345 44.7593 442.558 37.7564 427.7ZM146.946 651.417C146.876 651.333 146.846 651.298 146.946 651.417V651.417ZM257.156 666.765C247.35 670.185 237.225 672.61 226.933 674.002C218.45 675.142 209.868 675.353 201.339 674.632C194.258 673.994 187.266 672.597 180.483 670.463C174.825 668.687 169.35 666.373 164.132 663.554C159.863 661.234 155.789 658.573 151.949 655.596C150.409 654.396 148.895 653.153 147.441 651.86C147.31 651.705 147.179 651.549 146.989 651.443L146.767 651.18L145.884 650.347C145.299 649.797 144.746 649.26 144.154 648.653C131.768 636.123 125.77 619.127 120.497 602.727L120.286 602.475C165.419 672.897 213.032 685.68 277.244 658.68C270.695 661.725 263.989 664.424 257.156 666.765ZM366.24 24.1357C387.104 14.152 409.193 6.69661 432.229 3.92268C454.156 1.05912 476.446 3.22891 497.409 10.2673C520.587 18.3923 541.272 32.6993 559.272 49.2614C571.842 60.8188 582.339 74.1179 592.451 87.7611C495.136 -11.2483 417.023 3.77811 329.014 44.7165C341.058 37.2165 353.484 30.347 366.24 24.1357ZM692.884 237.787C697.127 249.792 699.366 262.413 699.512 275.145C699.421 286.72 697.227 298.183 693.038 308.975C684.776 330.53 669.861 348.885 653.622 364.958C646.849 371.69 639.831 378.179 632.619 384.461C687.747 324.723 706.385 273.909 681.779 212.06C686.145 220.333 689.858 228.935 692.884 237.787Z" fill="#FFE9E9"/>
</svg>
