<svg width="55" height="55" viewBox="0 0 55 55" fill="none" xmlns="http://www.w3.org/2000/svg">
<circle cx="28.0625" cy="28.0625" r="21" fill="white"/>
<path d="M27.5 0C12.3136 0 0 12.3136 0 27.5C0 42.6864 12.3136 55 27.5 55C42.6864 55 55 42.6864 55 27.5C55 12.3136 42.6864 0 27.5 0ZM36.3454 27.9236L22.9392 37.6775C22.8657 37.7303 22.779 37.7618 22.6888 37.7686C22.5985 37.7754 22.5082 37.7571 22.4276 37.7159C22.347 37.6747 22.2794 37.612 22.2321 37.5349C22.1848 37.4577 22.1597 37.369 22.1596 37.2785V17.7829C22.1593 17.6922 22.1841 17.6032 22.2313 17.5258C22.2785 17.4484 22.3462 17.3855 22.4269 17.3442C22.5077 17.3029 22.5983 17.2847 22.6887 17.2917C22.7791 17.2987 22.8658 17.3307 22.9392 17.3839L36.3454 27.1317C36.4088 27.1765 36.4604 27.2358 36.4961 27.3047C36.5317 27.3736 36.5504 27.4501 36.5504 27.5276C36.5504 27.6052 36.5317 27.6816 36.4961 27.7505C36.4604 27.8194 36.4088 27.8788 36.3454 27.9236Z" fill="#FF5F5F"/>
</svg>
